{"title":"Downton Abbey S06E08 x264 RB58.mp4","uid":12724799,"size":835634996,"categoryP":"video","categoryS":"tv_shows","magnet":"?xt=urn:btih:8769d873de39c58a2ecbea7902ec02cff120b252&amp;dn=Downton+Abbey+S06E08+x264+RB58.mp4&amp;tr=udp%3A%2F%2Ftracker.leechers-paradise.org%3A6969&amp;tr=udp%3A%2F%2Fzer0day.ch%3A1337&amp;tr=udp%3A%2F%2Fopen.demonii.com%3A1337&amp;tr=udp%3A%2F%2Ftracker.coppersurfer.tk%3A6969&amp;tr=udp%3A%2F%2Fexodus.desync.com%3A6969","seeders":1,"leechers":0,"uploader":"RedBaron58","files":1,"time":1447037109,"description":"Downton Abbey S06E08 x264 mp4\r\n \nhttp://www.imdb.com/title/tt1606375/\r\n\r\nTrailer:\r\n\r\n\r\nPlease be patient My intial upload speed is limited.\r\nThank you for your kind comments and feedback on my other torrents, your feedback is welcome.\r\n\r\n\r\nAbout the Episode:\r\nBertie's circumstances change suddenly, leaving Edith uncertain whether to risk telling him the truth \r\nor keep her past a secret at all costs. Mary wonders if she can ever make peace with her sister as \r\nhostilities escalate, Spratt shows some hidden talents and Molesley's first day as a teacher does \r\nnot go according to plan. \r\nMrs Patmore's bed and breakfast attracts unwanted attention, leaving her in need of the Crawleys' help. \r\n \r\nThe last episode of the final series, although the Crawleys will return one last time for a \r\nChristmas special.\r\n \r\nStarring Maggie Smith, Hugh Bonneville and Michelle Dockery\r\n\r\nI hope you enjoy.\r\n\r\n\r\nTechnical:\r\n\r\nGeneral\r\nComplete name                            : H:Downton Abbey S06E08 x264 RB58.mp4\r\nFormat                                   : MPEG-4\r\nFormat profile                           : Base Media\r\nCodec ID                                 : isom\r\nFile size                                : 797 MiB\r\nDuration                                 : 1h 12mn\r\nOverall bit rate                         : 1 532 Kbps\r\nWriting application                      : Lavf54.63.104\r\n\r\nVideo\r\nID                                       : 1\r\nFormat                                   : AVC\r\nFormat/Info                              : Advanced Video Codec\r\nFormat profile                           :   \r\nFormat settings, CABAC                   : Yes\r\nFormat settings, ReFrames                : 4 frames\r\nCodec ID                                 : avc1\r\nCodec ID/Info                            : Advanced Video Coding\r\nDuration                                 : 1h 12mn\r\nBit rate                                 : 1 400 Kbps\r\nWidth                                    : 832 pixels\r\nHeight                                   : 468 pixels\r\nDisplay aspect ratio                     : 16:9\r\nFrame rate mode                          : Constant\r\nFrame rate                               : 25.000 fps\r\nColor space                              : YUV\r\nChroma subsampling                       : 4:2:0\r\nBit depth                                : 8 bits\r\nScan type                                : Progressive\r\nBits/(Pixel*Frame)                       : 0.144\r\nStream size                              : 728 MiB (91%)\r\nWriting library                          : x264 core 123 r2189 35cf912\r\nEncoding settings                        : cabac=1 / ref=3 / deblock=1:0:0\r\n\r\nAudio\r\nID                                       : 2\r\nFormat                                   : AAC\r\nFormat/Info                              : Advanced Audio Codec\r\nFormat profile                           : LC\r\nCodec ID                                 : 40\r\nDuration                                 : 1h 12mn\r\nBit rate mode                            : Constant\r\nBit rate                                 : 123 Kbps\r\nChannel(s)                               : 2 channels\r\nChannel positions                        : Front: L R\r\nSampling rate                            : 48.0 KHz\r\nCompression mode                         : Lossy\r\nStream size                              : 64.1 MiB (8%)","torrent":{"xt":"urn:btih:8769d873de39c58a2ecbea7902ec02cff120b252","amp;dn":"Downton+Abbey+S06E08+x264+RB58.mp4","amp;tr":["udp%3A%2F%2Ftracker.leechers-paradise.org%3A6969","udp%3A%2F%2Fzer0day.ch%3A1337","udp%3A%2F%2Fopen.demonii.com%3A1337","udp%3A%2F%2Ftracker.coppersurfer.tk%3A6969","udp%3A%2F%2Fexodus.desync.com%3A6969"],"infoHash":"8769d873de39c58a2ecbea7902ec02cff120b252","infoHashBuffer":{"type":"Buffer","data":[135,105,216,115,222,57,197,138,46,203,234,121,2,236,2,207,241,32,178,82]},"announce":[],"urlList":[]}}